<?xml version="1.0" standalone="no"?>
<!DOCTYPE svg PUBLIC "-//W3C//DTD SVG 20010904//EN"
 "http://www.w3.org/TR/2001/REC-SVG-20010904/DTD/svg10.dtd">
<svg version="1.0" xmlns="http://www.w3.org/2000/svg"
 width="975.000000pt" height="975.000000pt" viewBox="0 0 975.000000 975.000000"
 preserveAspectRatio="xMidYMid meet">
<metadata>
Created by potrace 1.14, written by Peter Selinger 2001-2017
</metadata>
<g transform="translate(0.000000,975.000000) scale(0.100000,-0.100000)"
fill="#000000" stroke="none">
<path d="M7124 7631 c-35 -21 -64 -83 -64 -137 0 -39 28 -100 59 -128 11 -10
27 -42 36 -72 12 -42 25 -61 65 -95 48 -40 60 -62 42 -73 -14 -8 -115 43 -148
76 -35 33 -67 34 -72 3 -2 -11 -12 -27 -22 -35 -26 -22 -52 -112 -45 -153 8
-40 -11 -60 -30 -34 -16 23 -34 21 -61 -4 -21 -19 -24 -20 -52 -5 -30 15 -31
15 -50 -9 -19 -24 -87 -45 -143 -45 -25 0 -25 30 0 79 17 32 25 38 53 38 27 0
39 8 73 48 22 27 64 73 94 102 48 48 53 57 48 87 -5 30 -3 33 16 30 15 -3 13
-1 -5 7 -33 13 -34 19 -8 61 30 49 23 116 -14 140 -21 15 -133 9 -146 -7 -7
-8 -19 -15 -28 -15 -8 0 -48 -12 -88 -27 -71 -26 -94 -48 -94 -88 0 -19 -80
-21 -98 -3 -9 9 -12 9 -12 -2 -1 -10 -8 -6 -22 10 -14 16 -19 19 -15 8 8 -22
-11 -24 -19 -3 -4 8 -11 15 -16 15 -6 0 -5 -6 2 -15 10 -12 9 -15 -4 -15 -9 0
-19 7 -22 15 -4 8 -11 15 -16 15 -6 0 -5 -6 2 -15 9 -11 9 -15 1 -15 -6 0 -14
7 -17 15 -4 8 -10 15 -15 15 -4 0 -6 -7 -3 -15 4 -8 1 -15 -5 -15 -7 0 -14 7
-17 15 -4 8 -10 15 -15 15 -4 0 -6 -6 -3 -13 5 -15 -33 -17 -54 -3 -7 4 -16 5
-19 2 -4 -3 -1 -6 7 -6 9 0 11 -9 6 -31 l-6 -31 21 23 20 24 -7 -25 -7 -25 22
25 22 25 -6 -25 -6 -25 17 23 c19 26 39 30 30 5 -6 -16 -6 -16 12 0 23 21 39
22 22 2 -7 -8 -8 -15 -2 -15 5 0 15 7 22 15 7 8 17 15 22 15 6 0 6 -6 -1 -14
-7 -9 -8 -17 -3 -20 6 -3 12 1 16 9 3 8 10 15 15 15 6 0 8 -7 5 -15 -4 -8 -1
-15 5 -15 6 0 11 7 11 15 0 8 5 15 10 15 6 0 10 -5 10 -12 0 -9 3 -9 12 0 7 7
40 12 80 12 62 0 68 -2 68 -21 0 -12 8 -23 19 -26 11 -3 21 -17 25 -34 9 -49
69 -34 89 22 4 12 13 15 31 12 14 -3 26 -9 26 -14 0 -4 10 -17 22 -29 23 -21
10 -27 -23 -10 -15 8 -23 7 -34 -4 -20 -19 -19 -29 5 -51 29 -27 25 -35 -20
-35 -22 0 -40 -4 -40 -10 0 -5 -13 -7 -30 -3 -24 4 -30 2 -30 -11 0 -21 44
-38 76 -30 38 10 28 -9 -17 -30 -30 -14 -44 -15 -52 -7 -6 6 -27 11 -46 11
-44 0 -54 6 -75 48 -17 33 -17 34 14 80 31 46 37 92 13 99 -6 2 -16 -12 -23
-32 -6 -19 -17 -34 -23 -33 -27 5 -66 -13 -73 -34 -4 -12 -29 -42 -56 -66 -60
-55 -127 -187 -135 -268 -3 -30 -8 -54 -10 -54 -3 0 -16 9 -30 20 -34 26 -59
25 -112 -5 -24 -14 -56 -24 -71 -23 -15 1 -34 -3 -42 -9 -7 -6 -31 -13 -53
-15 -38 -5 -43 -2 -115 67 -116 113 -212 193 -250 211 -19 10 -45 28 -57 41
-27 28 -70 30 -121 4 -39 -20 -92 -67 -92 -83 0 -16 -89 -100 -127 -120 -21
-10 -103 -35 -181 -54 -79 -19 -180 -46 -225 -60 -91 -28 -224 -96 -247 -125
-13 -17 -19 -18 -43 -7 -15 7 -27 20 -27 30 0 9 -16 40 -35 70 -20 29 -56 105
-81 169 -55 140 -74 162 -132 153 -23 -4 -46 -12 -52 -19 -12 -14 4 -332 20
-385 5 -19 10 -46 10 -61 0 -14 11 -35 23 -48 31 -29 68 -132 49 -139 -24 -8
-52 -45 -52 -69 0 -19 -5 -23 -33 -23 -19 0 -60 -9 -92 -20 -32 -11 -75 -20
-96 -20 -21 0 -56 -7 -76 -15 -21 -8 -76 -23 -123 -35 -48 -11 -90 -28 -97
-37 -22 -28 -15 -69 16 -102 25 -27 36 -31 83 -31 29 0 71 -5 93 -10 22 -5
114 -16 205 -25 91 -9 269 -36 395 -61 127 -25 273 -49 325 -54 52 -5 131 -16
175 -25 44 -10 107 -19 139 -21 32 -2 61 -6 64 -8 8 -8 -58 -85 -78 -91 -11
-4 -20 -10 -20 -15 0 -5 -20 -29 -43 -53 -73 -74 -247 -377 -247 -431 0 -20
-14 -20 -46 0 -20 14 -38 15 -92 10 -131 -15 -165 -16 -178 -6 -6 6 -24 35
-38 64 -35 72 -124 156 -166 156 -50 0 -80 -38 -80 -102 0 -73 46 -327 64
-357 4 -6 13 -11 20 -11 7 0 25 -9 40 -21 14 -11 26 -17 26 -14 0 4 8 -2 18
-13 29 -35 144 -95 180 -94 27 1 36 -5 56 -37 35 -56 70 -65 143 -38 76 28
179 123 168 156 -6 20 -4 21 32 15 38 -6 38 -5 54 38 10 27 23 44 35 46 10 2
24 9 29 16 6 7 27 16 48 20 53 10 151 89 229 185 81 100 142 212 133 242 -4
13 -2 25 6 29 10 7 10 15 -1 41 -12 27 -12 33 -1 37 8 3 22 14 33 26 48 53 52
56 72 50 12 -3 30 -14 41 -24 37 -33 87 -51 158 -59 135 -15 359 21 398 62 19
20 19 20 19 1 0 -24 -105 -188 -172 -269 -28 -33 -134 -148 -237 -255 -218
-227 -264 -283 -301 -365 -40 -88 -44 -105 -26 -105 9 0 18 12 22 28 20 88
114 210 346 449 274 283 364 405 418 568 29 88 33 93 63 98 18 3 50 4 72 3 38
-3 40 -6 43 -38 3 -32 8 -37 55 -55 29 -12 65 -24 82 -28 28 -6 28 -7 10 -17
-11 -6 -29 -22 -41 -36 l-21 -26 -12 22 c-18 33 -28 20 -36 -45 -4 -32 -44
-170 -90 -308 -92 -275 -111 -365 -100 -486 6 -66 10 -79 27 -85 29 -9 31 -1
14 57 -36 119 -17 210 141 664 21 61 47 120 58 132 11 11 28 33 38 48 l19 26
151 -2 c84 -2 168 0 187 4 19 4 29 4 23 1 -32 -14 -9 -31 60 -41 39 -6 137
-25 217 -41 80 -16 226 -42 325 -57 148 -23 212 -38 360 -88 190 -63 222 -69
431 -88 117 -11 137 -10 183 5 33 11 57 14 64 8 7 -5 37 -12 67 -15 30 -4 93
-13 140 -22 118 -22 131 -21 176 8 21 14 64 30 96 36 31 5 73 19 94 30 21 12
57 21 80 21 26 0 46 6 56 18 23 25 33 99 17 118 -18 21 3 34 58 34 49 0 92 14
98 32 2 7 9 32 15 56 8 32 20 48 43 62 26 16 35 29 45 76 8 31 10 60 5 64 -12
11 -170 37 -308 51 -66 7 -149 17 -185 23 l-65 12 3 33 c5 65 -27 184 -79 289
-45 92 -57 109 -122 163 -40 33 -115 85 -167 116 -52 31 -109 67 -126 80 -17
13 -39 23 -49 23 -11 0 -30 11 -44 24 -25 23 -264 116 -299 116 -10 0 -26 6
-35 13 -15 11 -10 15 45 36 35 13 81 32 103 41 109 47 183 138 230 284 24 73
27 97 23 167 l-5 82 -49 43 c-60 53 -89 60 -234 55 -241 -7 -224 -8 -228 14
-9 45 -19 48 -152 41 -162 -9 -160 -9 -335 3 -82 5 -172 16 -200 25 -65 21
-93 20 -131 -3z m141 -31 c15 -6 6 -9 -33 -9 -33 -1 -51 3 -47 9 7 12 52 12
80 0z m212 -30 c90 2 123 -5 123 -24 0 -6 37 -24 83 -38 113 -36 146 -42 171
-29 11 5 80 20 151 31 101 17 151 20 222 15 105 -8 148 -25 181 -75 22 -32 24
-43 19 -121 -3 -69 -10 -98 -36 -151 -54 -114 -166 -200 -291 -222 -25 -4 -19
0 20 14 30 11 61 22 69 25 8 3 12 8 9 11 -3 2 -40 -7 -83 -21 -50 -16 -100
-25 -141 -25 -62 0 -90 -12 -57 -24 9 -4 37 -5 62 -2 25 3 11 -2 -31 -11 -43
-9 -81 -14 -84 -10 -3 3 6 21 20 40 14 19 26 38 26 43 1 5 16 27 35 48 27 33
36 38 48 28 8 -7 34 -17 58 -22 41 -9 41 -9 -16 -5 -55 4 -58 4 -41 -10 11 -8
29 -16 40 -17 12 -1 -8 -4 -44 -8 -64 -6 -64 -6 -35 -19 20 -8 48 -10 85 -6
62 8 133 34 112 42 -8 3 16 15 53 28 37 12 71 28 76 36 13 22 4 22 -32 0 -40
-25 -56 -27 -39 -6 17 20 -3 20 -35 -1 -13 -8 -36 -14 -52 -11 -27 4 -27 4 4
6 40 1 54 21 16 22 -15 0 -22 3 -15 6 6 2 12 9 12 14 0 4 -7 5 -17 2 -11 -4
-14 -3 -9 5 4 7 16 12 27 12 10 0 19 4 19 9 0 11 -35 21 -75 21 -16 0 -41 7
-55 15 -30 17 -12 20 24 4 26 -12 76 -5 76 11 0 6 -17 10 -37 10 -51 0 -81 9
-87 26 -5 12 -2 12 17 2 13 -6 56 -11 102 -10 73 1 82 4 103 27 12 14 22 31
22 38 -1 7 -9 3 -18 -9 -43 -51 -120 -58 -217 -19 -66 26 -53 34 15 10 84 -30
178 -8 195 45 10 32 0 35 -50 15 -46 -17 -73 -13 -45 6 12 9 11 9 -5 4 -40
-14 -105 -18 -105 -6 0 6 8 11 19 11 10 0 25 8 32 17 12 15 12 16 -6 9 -25 -9
-85 -18 -67 -10 27 13 9 21 -38 16 -40 -4 -50 -2 -48 9 2 9 -8 15 -27 17 -75
6 -165 25 -165 33 0 5 6 9 13 9 32 2 -257 72 -327 80 -43 5 -84 14 -89 19 -6
6 -7 11 -1 11 5 0 2 5 -6 11 -11 7 -1 8 35 4 28 -3 87 -5 132 -5z m432 -20
l36 -19 -75 0 c-51 -1 -70 2 -60 9 13 8 12 11 -5 25 -19 16 -18 16 24 10 23
-3 59 -14 80 -25z m-598 -73 c8 -2 1 -2 -16 1 -16 3 -45 6 -64 7 -22 1 -35 8
-37 18 -2 13 4 13 51 -3 29 -10 59 -20 66 -23z m-505 7 c-3 -9 -6 -36 -6 -60
0 -41 -2 -44 -27 -44 -21 0 -24 3 -15 12 7 7 12 28 12 48 0 35 14 60 33 60 5
0 6 -7 3 -16z m364 1 c7 -8 8 -15 2 -15 -5 0 -15 7 -22 15 -7 8 -8 15 -2 15 5
0 15 -7 22 -15z m-250 -48 c0 -5 -4 -5 -10 -2 -5 3 -10 14 -10 23 0 15 2 15
10 2 5 -8 10 -19 10 -23z m236 2 c25 -17 43 -34 39 -37 -10 -10 -49 -10 -65 0
-12 8 -12 9 3 4 25 -8 21 9 -8 28 -23 15 -34 36 -19 36 3 0 26 -14 50 -31z
m-436 -52 c0 -85 -15 -117 -46 -99 -13 8 -15 11 -4 12 11 0 11 3 2 12 -13 13
-16 29 -4 27 4 -1 14 -1 22 0 12 1 12 4 -2 17 -13 13 -14 23 -6 53 22 78 38
69 38 -22z m979 43 c24 -17 47 -30 51 -30 4 0 14 -20 21 -45 7 -25 17 -45 21
-45 4 0 8 -9 8 -20 0 -28 27 -36 49 -16 17 16 19 15 24 -12 3 -16 3 -39 0 -51
-3 -12 -1 -21 6 -21 16 0 13 -36 -4 -50 -8 -7 -21 -32 -28 -56 -17 -59 -126
-180 -185 -206 -41 -19 -47 -19 -123 -3 -43 8 -86 18 -94 21 -8 4 -15 1 -15
-5 0 -17 43 -41 75 -41 17 0 58 0 92 0 35 -1 72 4 84 10 19 11 20 10 14 -12
-4 -12 -11 -27 -16 -32 -12 -14 -11 -43 2 -51 6 -4 13 3 16 16 6 22 7 22 14 3
4 -10 8 -39 8 -62 1 -37 -5 -51 -39 -89 -45 -51 -58 -99 -40 -143 13 -32 20
-36 36 -20 8 8 15 6 23 -4 11 -12 10 -26 0 -68 -16 -65 -29 -83 -29 -39 0 37
-15 71 -33 71 -7 1 -37 12 -67 25 l-55 25 52 -6 53 -7 -3 34 c-2 30 -7 35 -51
52 -45 16 -52 17 -82 2 -17 -8 -40 -15 -51 -15 -10 -1 -34 -14 -53 -30 -19
-17 -38 -26 -42 -22 -17 17 -58 148 -58 188 0 52 16 73 65 84 65 15 221 12
262 -5 32 -14 39 -14 51 -1 12 12 12 15 -6 25 -11 6 -52 16 -91 23 -78 13
-240 -1 -290 -25 -24 -11 -26 -18 -25 -67 1 -30 15 -100 32 -155 19 -58 28
-103 22 -109 -14 -14 -77 3 -109 29 -16 14 -36 25 -44 25 -8 0 -62 16 -119 36
-92 33 -107 35 -144 26 -50 -13 -184 -89 -191 -109 -11 -27 6 -23 67 17 73 47
129 64 185 57 44 -5 219 -70 249 -92 18 -14 17 -16 -17 -54 -20 -22 -43 -54
-52 -70 -8 -17 -32 -39 -53 -50 -35 -18 -39 -18 -50 -3 -9 14 -13 15 -20 3 -6
-7 -14 -11 -20 -7 -6 3 -16 -2 -22 -11 -8 -14 -9 -10 -4 18 6 36 -8 60 -21 38
-4 -5 -12 -57 -18 -114 -8 -82 -13 -101 -22 -88 -11 15 -7 81 10 147 12 46
-18 27 -31 -19 -8 -31 -12 -35 -18 -20 -10 26 -22 9 -38 -54 -13 -56 -23 -67
-47 -52 -11 7 -12 17 -3 52 14 55 0 75 -28 41 -11 -13 -24 -21 -30 -17 -19 12
-40 -17 -40 -55 l0 -37 -52 -6 c-40 -5 -58 -3 -78 10 -18 13 -21 18 -10 20 9
2 23 34 38 86 13 49 31 89 43 99 11 10 18 22 15 27 -4 5 -2 12 4 16 5 3 10 17
10 29 0 13 30 74 68 136 77 129 182 237 266 276 68 31 225 55 366 57 133 1
112 14 -40 23 -112 8 -122 13 -107 54 10 26 8 33 -13 55 -24 25 -24 27 8 28
24 1 114 -44 130 -65 15 -21 72 -25 72 -5 0 20 -47 57 -64 51 -8 -3 -17 -1
-21 5 -3 6 -1 11 4 11 6 0 11 11 11 23 0 13 9 32 19 41 11 10 17 24 14 32 -10
28 14 13 43 -26 16 -22 43 -44 62 -51 39 -13 56 -4 21 11 -23 10 -23 10 4 6
21 -2 27 0 23 10 -3 8 -1 14 4 14 6 0 1 9 -10 20 -11 11 -20 26 -20 34 0 7 -9
16 -20 19 -31 8 -24 25 9 23 16 -1 41 -12 55 -25 25 -24 26 -24 46 -6 11 10
20 23 20 29 0 6 -5 5 -12 -2 -14 -14 -42 -16 -33 -2 8 12 -39 32 -59 24 -16
-6 -21 0 -29 37 -5 20 -1 28 22 42 15 9 37 14 49 10 32 -8 92 55 92 96 0 33
-3 34 -69 35 -20 1 -36 7 -39 15 -3 10 2 12 21 7 14 -3 28 -2 32 3 3 5 -3 11
-12 14 -10 2 3 7 30 11 26 5 47 12 47 17 0 16 25 9 69 -21z m-811 8 c22 -22
14 -57 -14 -64 -17 -4 -22 -9 -14 -14 15 -10 4 -30 -16 -30 -8 0 -12 -4 -9
-10 3 -5 -1 -10 -10 -10 -9 0 -15 7 -13 17 3 19 33 53 47 53 13 0 35 29 27 37
-3 3 -17 1 -31 -5 -22 -10 -25 -9 -25 7 0 17 9 23 41 30 3 0 10 -4 17 -11z
m-244 -52 c-8 -52 -30 -58 -27 -7 1 29 21 67 29 58 2 -2 1 -25 -2 -51z m687
14 c5 0 9 -4 9 -10 0 -16 -26 -12 -41 7 -12 15 -12 16 4 10 10 -4 23 -7 28 -7z
m-741 -32 c0 -5 -4 -8 -10 -8 -5 0 -10 10 -10 23 0 18 2 19 10 7 5 -8 10 -18
10 -22z m955 -8 c3 -5 2 -10 -3 -10 -5 0 -25 -3 -43 -6 -32 -5 -33 -5 -15 10
22 18 52 21 61 6z m-775 -15 c7 -9 10 -18 7 -22 -8 -7 -37 15 -37 28 0 14 16
11 30 -6z m820 -21 c0 -8 -4 -12 -10 -9 -5 3 -10 10 -10 16 0 5 5 9 10 9 6 0
10 -7 10 -16z m-375 -14 c8 -13 -5 -13 -25 0 -13 8 -13 10 2 10 9 0 20 -4 23
-10z m320 -25 l30 -13 -32 -1 c-17 -1 -44 -6 -60 -12 -15 -6 -38 -12 -51 -14
-13 -1 -29 -11 -37 -21 -52 -73 -59 -67 -19 15 20 42 29 52 45 48 10 -3 22 -1
25 4 8 13 65 10 99 -6z m-655 -10 c0 -16 -27 -54 -56 -78 -29 -24 -35 -26 -40
-13 -9 24 3 46 25 46 14 0 23 9 27 25 4 16 13 25 25 25 10 0 19 -2 19 -5z
m-390 -62 c0 -5 -7 -17 -15 -27 -8 -11 -12 -29 -9 -43 4 -12 2 -23 -4 -23 -17
0 -20 36 -6 69 11 27 35 44 34 24z m598 -101 c2 -37 7 -71 13 -76 5 -6 9 -19
9 -30 0 -18 -1 -18 -19 -2 -10 9 -32 21 -47 25 -44 11 -44 56 -2 109 18 22 35
41 38 41 3 1 6 -29 8 -67z m962 16 c10 -6 7 -7 -10 -2 -14 3 -32 11 -40 16
-10 6 -7 7 10 2 14 -3 32 -11 40 -16z m-889 -8 c22 -12 37 -25 33 -31 -4 -6
-10 -7 -17 0 -12 9 -18 11 -37 11 -5 0 -14 9 -20 20 -13 25 -9 25 41 0z m277
-30 c6 -16 7 -30 3 -30 -16 0 -43 40 -37 55 8 22 22 12 34 -25z m576 -9 c-6
-6 -34 20 -34 32 0 6 8 2 19 -9 10 -10 17 -21 15 -23z m-1634 25 c0 -3 -4 -8
-10 -11 -5 -3 -10 -1 -10 4 0 6 5 11 10 11 6 0 10 -2 10 -4z m1550 -16 c-12
-23 -30 -27 -30 -7 0 17 10 27 27 27 11 0 11 -5 3 -20z m173 3 c-7 -2 -19 -2
-25 0 -7 3 -2 5 12 5 14 0 19 -2 13 -5z m-848 -13 c3 -5 2 -10 -4 -10 -5 0
-13 5 -16 10 -3 6 -2 10 4 10 5 0 13 -4 16 -10z m-709 -31 c14 -16 26 -19 48
-15 23 5 28 4 19 -5 -16 -16 -75 -3 -105 21 -23 19 -23 19 -2 20 11 0 29 -9
40 -21z m-19 -85 c13 -4 23 -10 23 -15 0 -11 -71 24 -112 54 -15 12 -28 25
-28 29 0 5 21 -7 47 -27 25 -19 57 -38 70 -41z m1357 49 c-10 -42 -22 -49 -19
-11 3 40 3 38 15 38 6 0 8 -11 4 -27z m-1500 -71 c21 -18 36 -36 33 -38 -18
-18 -120 86 -110 111 4 13 9 10 23 -12 9 -15 34 -43 54 -61z m130 73 c11 -8
35 -15 54 -15 19 0 31 -4 27 -10 -10 -16 -38 -11 -80 15 -22 13 -35 24 -30 24
6 0 19 -6 29 -14z m1589 8 c-7 -2 -19 -2 -25 0 -7 3 -2 5 12 5 14 0 19 -2 13
-5z m-272 -37 c-10 -11 -8 -17 6 -25 16 -9 15 -10 -9 -11 -32 0 -36 15 -11 42
19 21 32 16 14 -6z m424 -2 c-11 -9 -37 -25 -58 -35 -33 -17 -37 -18 -29 -4 5
10 26 25 48 35 48 23 65 24 39 4z m-1794 -60 c12 -16 12 -17 -1 -9 -34 20 -70
49 -70 58 0 10 51 -25 71 -49z m639 26 c0 -5 -5 -10 -11 -10 -5 0 -7 5 -4 10
3 6 8 10 11 10 2 0 4 -4 4 -10z m47 -6 c-3 -3 -12 -4 -19 -1 -8 3 -5 6 6 6 11
1 17 -2 13 -5z m910 0 c-3 -3 -12 -4 -19 -1 -8 3 -5 6 6 6 11 1 17 -2 13 -5z
m38 -20 c-31 -23 -142 -54 -197 -54 -79 0 -53 22 43 37 46 7 100 17 119 22 51
13 57 12 35 -5z m-1745 -89 l35 -16 -39 5 c-41 5 -86 39 -86 65 0 10 8 7 28
-12 15 -14 43 -33 62 -42z m405 20 c-17 -47 -18 -84 -5 -105 11 -17 11 -16 31
73 15 70 32 76 23 7 -5 -34 -3 -50 5 -50 6 0 11 9 11 19 0 26 10 51 21 51 15
0 10 -44 -7 -68 -9 -13 -14 -34 -11 -48 3 -20 -11 -43 -70 -112 -79 -93 -159
-238 -150 -272 3 -13 0 -20 -9 -20 -18 0 -47 -60 -69 -145 -10 -38 -22 -75
-26 -81 -5 -7 1 -19 15 -33 24 -22 27 -22 201 -15 140 5 179 4 185 -6 13 -22
36 -4 48 37 15 51 119 153 156 153 20 0 29 9 44 44 11 24 37 62 57 85 31 34
44 41 74 41 20 0 42 4 49 9 8 5 35 -1 70 -15 55 -22 82 -24 52 -3 -12 8 -9 9
10 6 39 -8 99 -32 112 -45 16 -16 38 -15 38 2 0 17 -45 47 -85 57 l-30 7 35 1
c47 1 98 -31 105 -66 4 -15 8 -36 10 -46 7 -35 -78 -179 -155 -262 -83 -90
-146 -140 -247 -198 -37 -21 -73 -46 -80 -56 -21 -31 -140 -72 -241 -84 -88
-10 -93 -10 -120 11 -52 42 -84 55 -103 44 -14 -9 -19 -6 -29 19 -9 20 -18 28
-29 24 -13 -4 -16 3 -16 32 0 28 -5 38 -18 41 -16 3 -18 -3 -17 -50 3 -80 1
-102 -7 -94 -4 4 -6 23 -4 43 2 23 -1 33 -8 29 -6 -4 -11 -14 -11 -22 0 -8 -5
-14 -11 -14 -8 0 -10 18 -6 58 6 56 -4 94 -20 79 -4 -5 -16 -29 -25 -55 -14
-39 -17 -42 -17 -20 -1 15 6 46 15 68 12 30 14 44 6 52 -14 14 -36 -35 -53
-112 -6 -28 -15 -48 -20 -44 -12 7 -12 74 1 74 6 0 10 9 10 20 0 23 -17 25
-44 5 -41 -31 -46 -9 -18 66 21 56 39 80 75 104 l28 18 -27 28 c-29 31 -45 30
-37 0 3 -11 -6 -35 -21 -57 -14 -21 -35 -67 -47 -102 -25 -74 -38 -82 -123
-72 -40 4 -63 12 -72 25 -18 25 -18 34 4 43 10 4 18 19 19 36 1 16 8 33 15 37
10 6 9 11 -6 22 -13 10 -16 20 -11 36 6 19 11 21 37 16 38 -9 35 13 -4 33 -32
15 -28 39 12 77 l29 28 23 -49 c23 -48 24 -49 72 -52 41 -3 48 -1 43 12 -4 9
-2 16 3 16 6 0 10 11 10 25 0 14 5 25 10 25 6 0 10 -11 10 -24 0 -32 27 -55
36 -31 10 24 -12 64 -40 75 -13 5 -27 18 -31 29 -6 20 -73 85 -95 93 -10 3
-10 9 -1 25 6 12 11 40 11 63 0 35 4 43 31 58 58 32 78 53 85 88 3 19 10 37
15 40 5 3 9 17 9 32 0 31 45 132 58 132 5 0 0 -19 -11 -41 -23 -47 -29 -120
-9 -126 8 -3 12 6 12 28 0 46 19 103 46 135 l23 29 -18 -50 c-24 -66 -33 -117
-22 -134 16 -25 31 -1 31 48 0 33 9 66 31 110 37 73 51 74 20 2 -12 -28 -24
-71 -28 -96 -5 -38 -3 -45 11 -45 12 0 16 10 16 40 0 44 25 117 48 140 13 13
14 13 7 -5 -18 -47 -36 -128 -31 -141 10 -25 22 -8 35 50 15 68 26 78 26 23 0
-23 5 -42 13 -44 8 -3 12 8 12 36 0 41 20 102 42 128 17 21 18 11 3 -32z m148
9 c-4 -25 -2 -39 8 -44 17 -11 5 -24 -16 -17 -17 7 -20 49 -5 78 16 28 19 23
13 -17z m172 26 c-3 -5 -10 -10 -16 -10 -5 0 -9 5 -9 10 0 6 7 10 16 10 8 0
12 -4 9 -10z m-705 -26 c0 -2 -9 0 -20 6 -11 6 -20 13 -20 16 0 2 9 0 20 -6
11 -6 20 -13 20 -16z m76 -13 c-10 -16 -46 -20 -46 -5 0 8 10 14 26 14 14 0
23 -4 20 -9z m584 -9 c0 -8 -43 -32 -56 -32 -16 0 6 25 27 31 13 4 25 7 27 8
1 1 2 -3 2 -7z m-856 -18 c19 -19 30 -58 22 -79 -8 -22 20 -30 52 -15 24 10
28 9 41 -9 8 -13 24 -21 40 -21 38 0 51 -17 51 -66 0 -43 -30 -94 -55 -94 -7
0 -21 -8 -31 -17 -10 -11 -35 -19 -58 -20 -36 -1 -87 -7 -108 -11 -4 -1 -8
-14 -10 -29 l-3 -28 -20 23 c-11 12 -24 22 -30 22 -19 0 -47 -60 -42 -89 3
-15 -2 -44 -12 -66 l-18 -40 2 90 c1 50 7 100 14 113 16 30 5 45 -30 38 -24
-5 -28 -2 -31 22 -2 20 -13 32 -40 45 -24 12 -38 26 -38 37 0 11 -9 24 -21 30
-30 17 -20 50 27 83 33 23 44 26 66 18 22 -8 29 -6 41 12 14 21 15 21 41 3 27
-17 28 -17 43 4 14 21 70 60 85 60 4 0 14 -7 22 -16z m232 -69 c-6 -19 -16
-35 -23 -35 -12 0 -5 33 13 61 13 22 20 5 10 -26z m-57 -6 c-7 -14 -14 -18
-21 -11 -13 13 -2 32 18 32 12 0 13 -4 3 -21z m72 -36 c-12 -20 -14 -14 -5 12
4 9 9 14 11 11 3 -2 0 -13 -6 -23z m-963 -41 c28 -30 122 -201 122 -221 0 -15
-21 -14 -56 3 -16 8 -83 24 -149 37 -66 13 -122 25 -125 27 -2 1 17 21 43 44
37 31 46 45 41 60 -8 26 41 78 74 78 13 0 36 -12 50 -28z m2266 -180 c-1 -1
-14 2 -29 8 -24 9 -27 14 -21 42 3 18 14 43 24 57 l17 26 5 -65 c3 -36 4 -66
4 -68z m-777 -294 c-3 -8 -6 -5 -6 6 -1 11 2 17 5 13 3 -3 4 -12 1 -19z m-90
-80 c-2 -13 -4 -3 -4 22 0 25 2 35 4 23 2 -13 2 -33 0 -45z m-127 -8 c0 -11
-7 -20 -15 -20 -13 0 -13 3 -3 20 7 11 14 20 15 20 2 0 3 -9 3 -20z"/>
<path d="M7338 7553 c6 -2 18 -2 25 0 6 3 1 5 -13 5 -14 0 -19 -2 -12 -5z"/>
<path d="M7765 7440 c11 -5 27 -9 35 -9 13 -1 13 0 0 9 -8 5 -24 9 -35 9 l-20
0 20 -9z"/>
<path d="M7687 7303 c-14 -4 -16 -8 -6 -19 6 -8 20 -14 30 -14 11 0 19 -6 19
-14 0 -7 7 -19 15 -26 8 -7 15 -24 15 -38 l0 -25 -24 22 c-14 13 -26 33 -28
45 -2 17 -11 21 -43 23 -28 2 -34 0 -21 -6 17 -7 18 -8 3 -14 -14 -5 -12 -10
10 -36 30 -34 41 -34 23 -1 -6 11 -9 26 -7 33 2 7 16 -11 30 -39 14 -28 33
-54 42 -57 8 -4 15 -17 16 -29 0 -22 1 -22 9 -3 7 16 9 14 9 -14 1 -27 4 -32
13 -23 9 9 9 21 0 50 -18 58 -15 71 9 42 12 -14 19 -18 16 -9 -3 9 0 22 6 28
8 8 8 11 -1 11 -7 0 -12 6 -12 13 0 7 -8 20 -17 28 -10 9 -24 25 -32 37 -8 11
-20 18 -28 15 -8 -3 -13 0 -11 7 3 15 -10 19 -35 13z"/>
<path d="M7595 7100 c-8 -13 12 -40 31 -40 20 0 17 14 -5 34 -13 12 -21 14
-26 6z"/>
<path d="M7559 7049 c19 -6 41 -18 47 -27 12 -16 13 -16 20 1 8 23 8 23 -51
30 -46 6 -47 5 -16 -4z"/>
<path d="M7755 7023 c-4 -13 -14 -23 -21 -23 -8 0 -14 -8 -14 -19 0 -14 6 -17
24 -14 29 6 35 19 25 53 l-7 25 -7 -22z"/>
<path d="M7091 6714 c15 -16 37 -49 49 -72 12 -24 24 -42 27 -39 11 11 -62
132 -82 135 -18 4 -17 1 6 -24z"/>
<path d="M7480 6735 c0 -3 28 -18 62 -32 78 -34 61 -40 -37 -13 -71 20 -95 20
-95 1 0 -11 43 -28 103 -41 27 -6 59 -18 72 -26 24 -15 25 -15 35 11 19 49 13
65 -32 85 -40 18 -108 27 -108 15z"/>
<path d="M6950 6701 c0 -11 39 -59 40 -49 0 14 -23 58 -32 58 -4 0 -8 -4 -8
-9z"/>
<path d="M7183 6594 c-9 -19 -8 -24 2 -24 19 0 28 17 18 34 -6 12 -10 10 -20
-10z"/>
<path d="M6205 7390 c3 -5 8 -10 11 -10 2 0 4 5 4 10 0 6 -5 10 -11 10 -5 0
-7 -4 -4 -10z"/>
<path d="M6150 7360 c11 -7 11 -10 2 -10 -7 0 -10 -4 -7 -10 4 -6 11 -5 19 3
17 15 11 27 -12 27 -15 0 -15 -2 -2 -10z"/>
<path d="M6095 7350 c-3 -5 -2 -10 4 -10 5 0 13 5 16 10 3 6 2 10 -4 10 -5 0
-13 -4 -16 -10z"/>
<path d="M6995 7280 c28 -11 55 -20 60 -19 15 0 -78 38 -95 38 -8 0 8 -9 35
-19z"/>
<path d="M6254 5582 c-3 -81 -93 -264 -196 -400 -133 -174 -278 -473 -278
-573 0 -14 -7 -32 -15 -39 -22 -18 -18 -32 7 -28 18 2 24 13 34 68 31 161 107
312 287 568 148 210 239 442 175 442 -8 0 -14 -15 -14 -38z"/>
<path d="M6242 4725 c-8 -17 -20 -25 -38 -25 -14 0 -66 -14 -115 -31 -101 -35
-123 -32 -144 17 -15 36 -53 61 -79 51 -26 -10 -19 -37 9 -37 19 0 31 -10 46
-34 37 -63 82 -68 199 -20 33 13 69 24 80 24 11 0 23 7 27 16 3 8 12 13 21 9
15 -5 42 11 42 26 0 5 -8 13 -19 18 -15 8 -20 6 -29 -14z"/>
<path d="M5440 4692 c0 -5 9 -17 20 -27 11 -10 20 -25 20 -33 0 -11 8 -13 30
-8 32 6 37 -2 19 -35 -6 -12 -8 -27 -5 -36 9 -23 30 -1 46 49 8 24 19 46 24
50 7 5 7 11 -1 19 -8 8 -20 8 -47 -2 -33 -12 -38 -11 -59 9 -24 22 -47 29 -47
14z"/>
<path d="M2300 4448 c-1 -195 -8 -341 -26 -520 l-7 -68 90 0 90 0 6 184 c4
106 11 194 18 209 14 32 60 50 94 37 45 -17 49 -40 41 -242 l-6 -188 79 0 79
0 6 83 c3 45 7 143 8 217 2 125 1 138 -20 172 -43 70 -148 86 -242 38 -21 -11
-42 -20 -46 -20 -6 0 -2 81 12 243 l7 67 -92 0 -91 0 0 -212z"/>
<path d="M3679 4633 c-66 -34 -103 -89 -122 -183 -12 -59 -15 -65 -40 -68 -22
-3 -27 -8 -27 -33 0 -26 3 -29 30 -29 l31 0 -7 -230 -7 -230 81 0 82 0 2 228
3 227 35 3 c37 4 50 15 50 45 0 13 -8 17 -39 17 -47 0 -66 17 -82 70 -19 63
-9 74 61 66 l60 -7 0 76 0 75 -28 0 c-16 0 -53 -12 -83 -27z"/>
<path d="M437 4619 c-118 -28 -219 -108 -270 -217 -30 -63 -32 -73 -32 -182 0
-103 3 -121 26 -170 48 -102 109 -155 214 -186 72 -20 272 -15 351 10 l51 16
7 52 c3 29 6 101 6 161 l0 107 -90 0 -90 0 0 -130 c0 -122 -1 -130 -21 -141
-36 -19 -132 -6 -177 23 -133 89 -132 403 3 527 82 75 217 72 289 -8 11 -12
29 -21 41 -21 19 0 24 8 33 53 13 64 9 68 -82 96 -72 22 -188 27 -259 10z"/>
<path d="M2018 4532 l-78 -35 0 -53 c0 -50 -1 -53 -27 -56 -24 -3 -28 -8 -31
-40 -3 -32 0 -37 20 -40 23 -3 23 -4 28 -198 5 -211 10 -229 60 -250 33 -14
116 -8 150 10 31 17 25 46 -12 56 l-33 10 -3 134 c-2 74 0 158 3 187 l6 52 42
3 c39 3 42 5 45 36 3 31 2 32 -36 32 -21 0 -41 2 -43 5 -3 2 -1 39 4 81 12
107 5 112 -95 66z"/>
<path d="M5610 4545 c0 -19 81 -58 113 -53 12 2 23 11 25 21 3 14 -4 17 -38
17 -22 0 -54 7 -70 15 -27 14 -30 14 -30 0z"/>
<path d="M1043 4386 c-22 -8 -55 -24 -73 -36 -26 -19 -30 -27 -25 -49 4 -14 8
-27 10 -29 1 -2 20 8 40 23 21 14 46 25 57 25 37 0 76 -29 88 -66 15 -46 9
-52 -90 -93 -104 -43 -134 -63 -153 -104 -21 -43 -22 -109 -2 -146 16 -31 69
-61 109 -61 14 0 51 11 82 25 l57 25 42 -20 c49 -24 74 -25 120 -6 36 15 51
56 20 56 -32 0 -38 39 -31 199 6 141 5 159 -12 191 -37 69 -139 97 -239 66z
m102 -323 c-7 -74 -26 -113 -53 -113 -27 0 -39 13 -47 47 -14 66 28 133 83
133 24 0 24 -1 17 -67z"/>
<path d="M1545 4382 c-48 -23 -69 -45 -90 -95 -20 -48 -19 -104 3 -147 13 -27
36 -45 102 -80 71 -38 86 -49 88 -72 2 -20 -4 -31 -22 -43 -36 -24 -83 -13
-135 31 -23 20 -43 35 -45 33 -2 -2 -8 -26 -14 -54 -13 -61 -7 -70 61 -90 64
-19 102 -19 160 1 86 29 138 113 124 201 -8 47 -25 64 -118 118 -42 25 -80 53
-83 61 -11 30 -6 53 16 68 35 25 67 19 105 -19 19 -19 41 -35 48 -35 13 0 35
49 35 80 0 46 -164 75 -235 42z"/>
<path d="M3050 4385 c-62 -19 -123 -75 -155 -139 -30 -61 -36 -163 -13 -238
19 -63 82 -123 154 -144 160 -46 312 25 360 169 22 67 15 187 -14 244 -53 102
-198 149 -332 108z m149 -74 c57 -57 53 -292 -6 -362 -42 -49 -109 -38 -134
23 -22 51 -19 254 3 295 34 62 99 82 137 44z"/>
<path d="M9135 3738 c-77 -44 -151 -90 -163 -102 -60 -54 -63 -68 -152 -821
-11 -93 -23 -187 -26 -207 l-6 -37 106 35 c101 34 106 37 110 67 3 18 15 127
27 242 25 244 24 241 137 274 109 31 119 32 136 16 17 -17 16 -25 -15 -313
-18 -168 -19 -188 -5 -236 17 -58 41 -86 74 -86 23 0 342 179 376 211 33 31
10 33 -64 5 -72 -26 -115 -32 -137 -18 -38 24 -43 139 -13 357 26 192 26 235
1 235 -22 0 -362 -119 -410 -144 -18 -10 -36 -15 -39 -12 -8 8 24 280 44 376
31 151 55 170 188 152 l81 -11 37 42 c21 23 38 45 38 50 0 4 -42 7 -92 7 l-93
-1 -140 -81z"/>
<path d="M509 3676 c-25 -7 -73 -27 -105 -45 -149 -79 -230 -195 -228 -326 1
-134 50 -181 258 -249 192 -62 251 -106 263 -194 7 -53 -25 -114 -79 -149 -38
-26 -50 -28 -137 -28 -80 0 -104 4 -142 23 -64 31 -117 86 -145 148 -13 29
-27 55 -33 58 -5 3 -32 -24 -60 -61 -27 -38 -60 -81 -72 -96 l-22 -28 34 -35
c19 -19 63 -50 99 -67 57 -28 76 -32 167 -35 119 -4 175 9 301 69 153 74 282
227 282 337 0 76 -46 154 -114 189 -15 8 -95 34 -177 58 -174 51 -229 79 -254
131 -23 50 -17 130 15 174 41 58 138 86 207 59 62 -23 112 -100 113 -172 0
-64 23 -59 106 24 41 40 74 82 74 93 0 10 -19 38 -43 61 -68 69 -191 93 -308
61z"/>
<path d="M1347 3549 c-111 -64 -162 -99 -172 -119 -8 -15 -17 -58 -21 -96 -4
-38 -11 -77 -16 -88 -6 -10 -39 -31 -74 -47 -59 -27 -85 -51 -71 -65 2 -3 33
6 68 20 34 14 65 24 68 21 3 -3 0 -47 -6 -98 -7 -51 -32 -274 -58 -497 -25
-223 -48 -415 -50 -426 -5 -24 -31 -34 -91 -34 -39 0 -94 -29 -94 -49 0 -5
120 -8 267 -9 220 0 273 3 297 15 39 20 22 29 -78 37 -44 4 -83 9 -86 11 -7 4
45 483 53 492 3 2 22 0 44 -6 87 -24 128 -15 278 62 127 65 143 77 173 122 87
133 115 396 54 513 -25 50 -83 82 -147 82 -29 0 -105 -17 -180 -39 -71 -22
-133 -36 -136 -33 -12 12 11 135 33 181 16 33 37 54 85 84 43 28 59 43 51 49
-7 4 -17 8 -23 8 -5 0 -81 -41 -168 -91z m211 -286 c45 -32 63 -83 69 -191 9
-157 -33 -324 -92 -370 -43 -34 -111 -30 -171 11 -27 18 -53 44 -58 59 -7 20
-3 86 13 225 33 276 30 266 71 280 49 18 135 11 168 -14z"/>
<path d="M6440 3495 c-47 -19 -89 -36 -94 -37 -4 -2 -13 -51 -20 -108 l-11
-105 -60 -5 c-33 -3 -76 -14 -95 -25 l-35 -20 89 -3 89 -3 -7 -82 c-4 -45 -14
-133 -22 -195 -15 -121 -10 -167 26 -248 24 -55 54 -84 86 -84 14 0 90 38 172
87 168 100 182 110 182 134 0 16 -9 14 -76 -17 -41 -19 -85 -34 -97 -34 -60 0
-91 61 -89 180 1 94 20 252 32 264 5 5 37 6 72 4 44 -4 72 -1 93 10 28 14 28
16 10 23 -11 4 -55 8 -97 8 l-78 1 0 28 c0 28 17 186 25 235 2 15 1 27 -3 26
-4 0 -45 -16 -92 -34z"/>
<path d="M2485 3401 c-78 -13 -337 -115 -366 -144 -74 -73 -125 -244 -115
-387 8 -122 20 -158 75 -211 54 -52 103 -69 203 -69 63 0 65 1 261 116 116 69
197 122 197 131 0 8 -6 13 -12 10 -247 -106 -337 -120 -419 -64 -27 18 -106
135 -97 142 2 1 55 28 118 59 148 75 264 150 292 189 30 41 36 132 13 176 -9
19 -31 39 -50 47 -37 15 -39 15 -100 5z m-44 -100 c52 -53 36 -159 -34 -217
-33 -27 -175 -104 -193 -104 -11 0 4 160 21 217 10 33 30 68 54 93 33 34 44
40 80 40 34 0 49 -6 72 -29z"/>
<path d="M3223 3396 c-96 -31 -218 -139 -263 -231 -22 -46 -26 -114 -9 -148
27 -52 63 -77 158 -108 145 -49 183 -96 147 -184 -28 -67 -104 -90 -176 -53
-37 19 -50 34 -75 85 -17 34 -33 64 -37 68 -9 9 -128 -73 -128 -88 0 -41 75
-114 139 -136 75 -25 188 0 296 64 119 72 176 148 178 239 2 96 -38 133 -198
181 -109 33 -165 79 -165 138 0 49 8 65 41 82 72 38 168 4 220 -77 17 -26 35
-48 39 -48 4 0 24 28 45 62 33 55 35 64 24 86 -33 60 -154 95 -236 68z"/>
<path d="M3929 3386 c-58 -21 -101 -51 -163 -115 -73 -78 -100 -136 -94 -208
6 -74 44 -112 147 -149 118 -42 150 -61 168 -100 15 -31 16 -39 3 -77 -12 -34
-24 -46 -63 -66 -84 -41 -162 -3 -207 101 -12 29 -24 55 -26 57 -5 5 -134 -80
-134 -89 0 -12 50 -82 73 -101 30 -25 103 -49 148 -49 46 0 163 39 224 74 57
34 137 113 158 159 33 69 16 163 -37 205 -15 11 -76 37 -136 57 -124 41 -154
61 -170 110 -14 44 -7 67 31 100 38 31 94 33 148 5 41 -20 86 -67 96 -100 9
-30 21 -25 53 23 54 79 55 82 25 118 -15 17 -42 38 -60 45 -40 17 -136 17
-184 0z"/>
<path d="M4740 3367 c-159 -71 -296 -147 -317 -176 -12 -15 -29 -53 -38 -83
-22 -77 -55 -274 -55 -328 0 -52 26 -113 63 -152 44 -47 73 -40 250 67 87 52
162 95 166 95 5 0 11 -37 15 -82 8 -98 24 -123 73 -115 17 3 111 51 207 107
132 76 176 107 176 121 0 19 -1 19 -40 -1 -21 -11 -62 -29 -90 -40 -50 -20
-50 -20 -70 0 -10 10 -22 36 -26 56 -14 73 18 371 47 445 5 14 23 33 39 43 17
9 30 21 30 25 0 15 -149 44 -250 48 -102 4 -107 3 -180 -30z m95 -94 c21 -7
42 -18 46 -24 6 -10 -35 -306 -51 -370 -9 -32 -18 -40 -96 -78 -81 -41 -86
-42 -109 -27 -44 29 -59 72 -58 166 2 110 18 201 50 271 39 88 96 104 218 62z"/>
<path d="M5515 3336 c-169 -69 -175 -72 -175 -91 0 -11 10 -11 56 2 50 13 58
12 80 -2 36 -23 36 -26 -6 -383 -18 -145 -30 -265 -28 -268 7 -6 192 57 204
70 6 6 19 115 29 251 10 132 22 250 26 262 13 35 54 55 110 55 41 0 59 -6 95
-31 l44 -32 45 97 c25 53 45 102 45 109 0 16 -32 25 -98 25 -52 0 -53 -1 -136
-80 -46 -44 -86 -80 -90 -80 -3 0 -6 31 -6 68 0 65 -11 93 -34 91 -6 -1 -78
-29 -161 -63z"/>
<path d="M7385 3381 c-16 -10 -59 -49 -95 -85 -35 -36 -68 -66 -73 -66 -5 0
-8 30 -7 68 4 90 3 92 -22 92 -35 -1 -331 -124 -336 -139 -4 -11 8 -12 61 -7
64 7 66 7 83 -20 17 -25 17 -37 -15 -313 -17 -157 -33 -296 -35 -308 -2 -13 0
-23 3 -22 3 0 53 17 111 37 l105 38 6 99 c4 55 12 172 19 260 15 178 22 193
94 213 46 13 85 2 136 -38 l40 -32 9 24 c5 13 25 61 45 107 20 46 34 86 32 88
-7 7 -79 23 -106 23 -14 0 -38 -9 -55 -19z"/>
<path d="M7830 3327 c-91 -34 -171 -66 -178 -70 -25 -17 0 -27 49 -21 37 5 55
3 74 -10 23 -15 25 -22 25 -92 0 -41 -9 -148 -20 -239 -16 -128 -18 -173 -10
-210 16 -73 36 -105 66 -105 30 0 184 77 299 150 43 27 82 50 86 50 10 0 16
-23 25 -85 11 -85 41 -123 82 -108 20 8 331 190 350 205 6 6 12 19 12 29 0 16
-7 15 -66 -12 -83 -38 -103 -35 -128 16 -25 51 -25 139 1 375 11 96 18 177 17
179 -5 6 -224 -51 -224 -58 -1 -55 -52 -466 -60 -476 -5 -6 -41 -26 -79 -44
-59 -27 -73 -30 -94 -20 -61 28 -67 108 -28 373 33 221 32 237 -13 235 -11 0
-95 -28 -186 -62z"/>
</g>
</svg>
